# xmcd
#
# Track frame offsets:
#	151
#	15215
#	32599
#	63516
#	79705
#	93055
#	109181
#	124799
#	142949
#	159205
#	175504
#
# Disc length: 2967 seconds
#
# Revision: 0
# Processed by: cddbd v1.5.2PL0 Copyright (c) Steve Scherf et al.
# Submitted via: dBpowerAMP V4.0
#
DISCID=710b950b
DTITLE=Swingshift - Still Swingin
DYEAR=2005
DGENRE=Country
TTITLE0=Miles And Miles Of Texas
TTITLE1=Jambalaya
TTITLE2=Past The Point Of Rescue
TTITLE3=I'll Cry Tomorrow
TTITLE4=Mama Tried
TTITLE5=Big City
TTITLE6=Pizzirico
TTITLE7=Devil Went Down To Georgia
TTITLE8=Diggy Liggy Li
TTITLE9=You Ain't Goin Nowhere
TTITLE10=Orange Blossom Special
EXTD=
EXTT0=
EXTT1=
EXTT2=
EXTT3=
EXTT4=
EXTT5=
EXTT6=
EXTT7=
EXTT8=
EXTT9=
EXTT10=
PLAYORDER=
